<mxfile host="app.diagrams.net" modified="2023-06-23T15:24:11.726Z" agent="Mozilla/5.0 (Windows NT 10.0; Win64; x64) AppleWebKit/537.36 (KHTML, like Gecko) Chrome/114.0.0.0 Safari/537.36" etag="WiicOaEZJ-sWlSM3peBg" version="21.5.0" type="google">
  <diagram name="Page-1" id="d0AC3dYzAiTQ7TLsGZpV">
    <mxGraphModel grid="1" page="1" gridSize="10" guides="1" tooltips="1" connect="1" arrows="1" fold="1" pageScale="1" pageWidth="827" pageHeight="1169" math="0" shadow="0">
      <root>
        <mxCell id="0" />
        <mxCell id="1" parent="0" />
        <mxCell id="NwPOSqZmB79cVId4hyT0-1" value="" style="rounded=1;whiteSpace=wrap;html=1;fillColor=#0050ef;fontColor=#ffffff;strokeColor=#001DBC;" vertex="1" parent="1">
          <mxGeometry x="315" y="80" width="250" height="140" as="geometry" />
        </mxCell>
        <mxCell id="NwPOSqZmB79cVId4hyT0-2" value="" style="ellipse;whiteSpace=wrap;html=1;aspect=fixed;fillColor=#0050ef;fontColor=#ffffff;strokeColor=#001DBC;" vertex="1" parent="1">
          <mxGeometry x="390" y="-10" width="105" height="105" as="geometry" />
        </mxCell>
        <mxCell id="NwPOSqZmB79cVId4hyT0-3" value="&lt;font color=&quot;#ffffff&quot;&gt;&amp;nbsp;Un client care va trebui sa isi&amp;nbsp; &amp;nbsp; &amp;nbsp; &amp;nbsp; &amp;nbsp;creeze un cont personal.&lt;/font&gt;" style="text;html=1;strokeColor=none;fillColor=none;align=center;verticalAlign=middle;whiteSpace=wrap;rounded=0;" vertex="1" parent="1">
          <mxGeometry x="352.5" y="150" width="180" height="30" as="geometry" />
        </mxCell>
        <mxCell id="NwPOSqZmB79cVId4hyT0-4" value="&lt;font color=&quot;#ffffff&quot; style=&quot;font-size: 14px;&quot;&gt;Persoana&lt;/font&gt;" style="text;html=1;strokeColor=none;fillColor=none;align=center;verticalAlign=middle;whiteSpace=wrap;rounded=0;" vertex="1" parent="1">
          <mxGeometry x="410" y="120" width="65" height="30" as="geometry" />
        </mxCell>
        <mxCell id="NwPOSqZmB79cVId4hyT0-5" value="&lt;font color=&quot;#ffffff&quot; style=&quot;font-size: 24px;&quot;&gt;Utilizator&lt;/font&gt;" style="text;html=1;strokeColor=none;fillColor=none;align=center;verticalAlign=middle;whiteSpace=wrap;rounded=0;" vertex="1" parent="1">
          <mxGeometry x="410" y="95" width="60" height="30" as="geometry" />
        </mxCell>
        <mxCell id="NwPOSqZmB79cVId4hyT0-6" value="" style="endArrow=classic;html=1;rounded=0;exitX=0.436;exitY=0.993;exitDx=0;exitDy=0;exitPerimeter=0;" edge="1" parent="1" source="NwPOSqZmB79cVId4hyT0-1" target="NwPOSqZmB79cVId4hyT0-8">
          <mxGeometry relative="1" as="geometry">
            <mxPoint x="425" y="310" as="sourcePoint" />
            <mxPoint x="260" y="390" as="targetPoint" />
          </mxGeometry>
        </mxCell>
        <mxCell id="NwPOSqZmB79cVId4hyT0-7" value="Uses&lt;br&gt;" style="edgeLabel;resizable=0;html=1;align=center;verticalAlign=middle;" connectable="0" vertex="1" parent="NwPOSqZmB79cVId4hyT0-6">
          <mxGeometry relative="1" as="geometry" />
        </mxCell>
        <mxCell id="NwPOSqZmB79cVId4hyT0-8" value="" style="rounded=0;whiteSpace=wrap;html=1;fillColor=#1ba1e2;strokeColor=#006EAF;fontColor=#ffffff;" vertex="1" parent="1">
          <mxGeometry x="90" y="340" width="240" height="140" as="geometry" />
        </mxCell>
        <mxCell id="NwPOSqZmB79cVId4hyT0-9" value="&lt;font style=&quot;font-size: 24px;&quot; color=&quot;#ffffff&quot;&gt;Browser&lt;br&gt;&lt;br&gt;&lt;/font&gt;" style="text;html=1;strokeColor=none;fillColor=none;align=center;verticalAlign=middle;whiteSpace=wrap;rounded=0;" vertex="1" parent="1">
          <mxGeometry x="180" y="370" width="60" height="30" as="geometry" />
        </mxCell>
        <mxCell id="NwPOSqZmB79cVId4hyT0-13" value="&lt;font style=&quot;font-size: 14px;&quot; color=&quot;#ffffff&quot;&gt;Pentru interactiunea utilizatorului cu website-ul&lt;/font&gt;" style="text;html=1;strokeColor=none;fillColor=none;align=center;verticalAlign=middle;whiteSpace=wrap;rounded=0;" vertex="1" parent="1">
          <mxGeometry x="110" y="400" width="200" height="30" as="geometry" />
        </mxCell>
        <mxCell id="NwPOSqZmB79cVId4hyT0-14" value="" style="endArrow=classic;html=1;rounded=0;exitX=1.004;exitY=0.443;exitDx=0;exitDy=0;exitPerimeter=0;" edge="1" parent="1" source="NwPOSqZmB79cVId4hyT0-8">
          <mxGeometry relative="1" as="geometry">
            <mxPoint x="546" y="349.5" as="sourcePoint" />
            <mxPoint x="480" y="400" as="targetPoint" />
          </mxGeometry>
        </mxCell>
        <mxCell id="NwPOSqZmB79cVId4hyT0-15" value="Uses&lt;br&gt;" style="edgeLabel;resizable=0;html=1;align=center;verticalAlign=middle;" connectable="0" vertex="1" parent="NwPOSqZmB79cVId4hyT0-14">
          <mxGeometry relative="1" as="geometry" />
        </mxCell>
        <mxCell id="NwPOSqZmB79cVId4hyT0-16" value="" style="rounded=0;whiteSpace=wrap;html=1;fillColor=#1ba1e2;fontColor=#ffffff;strokeColor=#006EAF;" vertex="1" parent="1">
          <mxGeometry x="480" y="340" width="250" height="140" as="geometry" />
        </mxCell>
        <mxCell id="NwPOSqZmB79cVId4hyT0-18" value="&lt;font color=&quot;#ffffff&quot;&gt;Permite utilizatorului sa intre in cont si sa joace/ creeze un joc&lt;/font&gt;" style="text;html=1;strokeColor=none;fillColor=none;align=center;verticalAlign=middle;whiteSpace=wrap;rounded=0;" vertex="1" parent="1">
          <mxGeometry x="535" y="400" width="140" height="40" as="geometry" />
        </mxCell>
        <mxCell id="NwPOSqZmB79cVId4hyT0-19" value="&lt;font color=&quot;#ffffff&quot; style=&quot;font-size: 14px;&quot;&gt;Sistem software&lt;/font&gt;" style="text;html=1;strokeColor=none;fillColor=none;align=center;verticalAlign=middle;whiteSpace=wrap;rounded=0;" vertex="1" parent="1">
          <mxGeometry x="546.5" y="370" width="117" height="30" as="geometry" />
        </mxCell>
        <mxCell id="NwPOSqZmB79cVId4hyT0-20" value="&lt;h1 style=&quot;border-color: var(--border-color); text-align: left;&quot;&gt;&lt;font color=&quot;#ffffff&quot; style=&quot;border-color: var(--border-color); font-size: 18px;&quot;&gt;&lt;span style=&quot;white-space: pre;&quot;&gt;&amp;nbsp;&amp;nbsp;&amp;nbsp;&amp;nbsp;&lt;/span&gt;Website&lt;/font&gt;&lt;/h1&gt;&lt;h1 style=&quot;border-color: var(--border-color); text-align: left;&quot;&gt;&lt;br&gt;&lt;/h1&gt;" style="text;html=1;strokeColor=none;fillColor=none;align=center;verticalAlign=middle;whiteSpace=wrap;rounded=0;" vertex="1" parent="1">
          <mxGeometry x="510" y="335" width="169" height="100" as="geometry" />
        </mxCell>
        <mxCell id="NwPOSqZmB79cVId4hyT0-21" value="" style="endArrow=classic;html=1;rounded=0;exitX=0.436;exitY=0.993;exitDx=0;exitDy=0;exitPerimeter=0;" edge="1" parent="1">
          <mxGeometry relative="1" as="geometry">
            <mxPoint x="616" y="480" as="sourcePoint" />
            <mxPoint x="616" y="600" as="targetPoint" />
          </mxGeometry>
        </mxCell>
        <mxCell id="NwPOSqZmB79cVId4hyT0-22" value="Citeste si scrie informatii&lt;br&gt;" style="edgeLabel;resizable=0;html=1;align=center;verticalAlign=middle;" connectable="0" vertex="1" parent="NwPOSqZmB79cVId4hyT0-21">
          <mxGeometry relative="1" as="geometry" />
        </mxCell>
        <mxCell id="NwPOSqZmB79cVId4hyT0-23" value="" style="shape=cylinder3;whiteSpace=wrap;html=1;boundedLbl=1;backgroundOutline=1;size=15;fillColor=#647687;strokeColor=#314354;fontColor=#ffffff;" vertex="1" parent="1">
          <mxGeometry x="509.37" y="600" width="215" height="120" as="geometry" />
        </mxCell>
        <mxCell id="NwPOSqZmB79cVId4hyT0-24" value="&lt;font color=&quot;#ffffff&quot; style=&quot;font-size: 15px;&quot;&gt;Database MySQL&lt;/font&gt;" style="text;html=1;strokeColor=none;fillColor=none;align=center;verticalAlign=middle;whiteSpace=wrap;rounded=0;" vertex="1" parent="1">
          <mxGeometry x="535.25" y="600" width="163.25" height="30" as="geometry" />
        </mxCell>
        <mxCell id="NwPOSqZmB79cVId4hyT0-25" value="&lt;font color=&quot;#ffffff&quot;&gt;Stocheaza informatii disponibile oe site si informatii despre utilizator&lt;/font&gt;" style="text;html=1;strokeColor=none;fillColor=none;align=center;verticalAlign=middle;whiteSpace=wrap;rounded=0;" vertex="1" parent="1">
          <mxGeometry x="550.31" y="650" width="133.12" height="30" as="geometry" />
        </mxCell>
        <mxCell id="NwPOSqZmB79cVId4hyT0-28" value="" style="endArrow=none;dashed=1;html=1;dashPattern=1 3;strokeWidth=2;rounded=0;" edge="1" parent="1">
          <mxGeometry width="50" height="50" relative="1" as="geometry">
            <mxPoint x="63" y="300" as="sourcePoint" />
            <mxPoint x="763" y="300" as="targetPoint" />
          </mxGeometry>
        </mxCell>
        <mxCell id="NwPOSqZmB79cVId4hyT0-29" value="" style="endArrow=none;dashed=1;html=1;dashPattern=1 3;strokeWidth=2;rounded=0;" edge="1" parent="1">
          <mxGeometry width="50" height="50" relative="1" as="geometry">
            <mxPoint x="60" y="800" as="sourcePoint" />
            <mxPoint x="60" y="300" as="targetPoint" />
          </mxGeometry>
        </mxCell>
        <mxCell id="NwPOSqZmB79cVId4hyT0-30" value="" style="endArrow=none;dashed=1;html=1;dashPattern=1 3;strokeWidth=2;rounded=0;" edge="1" parent="1">
          <mxGeometry width="50" height="50" relative="1" as="geometry">
            <mxPoint x="60" y="800" as="sourcePoint" />
            <mxPoint x="760" y="800" as="targetPoint" />
          </mxGeometry>
        </mxCell>
        <mxCell id="NwPOSqZmB79cVId4hyT0-31" value="" style="endArrow=none;dashed=1;html=1;dashPattern=1 3;strokeWidth=2;rounded=0;" edge="1" parent="1">
          <mxGeometry width="50" height="50" relative="1" as="geometry">
            <mxPoint x="760" y="800" as="sourcePoint" />
            <mxPoint x="760" y="300" as="targetPoint" />
          </mxGeometry>
        </mxCell>
        <mxCell id="NwPOSqZmB79cVId4hyT0-33" value="&lt;font style=&quot;font-size: 16px;&quot;&gt;Website&lt;/font&gt;" style="text;html=1;strokeColor=none;fillColor=none;align=center;verticalAlign=middle;whiteSpace=wrap;rounded=0;" vertex="1" parent="1">
          <mxGeometry x="70" y="760" width="60" height="30" as="geometry" />
        </mxCell>
      </root>
    </mxGraphModel>
  </diagram>
</mxfile>
